name C:\Users\u0101727\Documents\MyRepositories\upper-imu-dc\Results\main_tracking\Case_56\kinematics.mot
datacolumns 43
datarows 8
range 1.20000000 1.27000000
endheader 
time	clav_prot	clav_elev	scapula_abduction	scapula_elevation	scapula_upward_rot	scapula_winging	plane_elv	shoulder_elv	axial_rot	TrapeziusScapula_M/activation	TrapeziusScapula_S/activation	TrapeziusScapula_I/activation	TrapeziusClavicle_S/activation	SerratusAnterior_I/activation	SerratusAnterior_M/activation	SerratusAnterior_S/activation	Rhomboideus_S/activation	Rhomboideus_I/activation	LevatorScapulae/activation	Coracobrachialis/activation	DeltoideusClavicle_A/activation	DeltoideusScapula_P/activation	DeltoideusScapula_M/activation	LatissimusDorsi_S/activation	LatissimusDorsi_M/activation	LatissimusDorsi_I/activation	PectoralisMajorClavicle_S/activation	PectoralisMajorThorax_I/activation	PectoralisMajorThorax_M/activation	TeresMajor/activation	Infraspinatus_I/activation	Infraspinatus_S/activation	PectoralisMinor/activation	TeresMinor/activation	Subscapularis_S/activation	Subscapularis_M/activation	Subscapularis_I/activation	Supraspinatus_P/activation	Supraspinatus_A/activation	TRIlong/activation	BIC_long/activation	BIC_brevis/activation	
          1.20000000	        -27.41894337	         -4.07317694	        -20.18753069	         -4.45977614	         14.11962560	          4.86946209	        -34.81040135	         18.80241980	         28.22157219	          0.06200607	          0.09926869	          0.04704749	          0.07326344	          0.10117255	          0.11145086	          0.06185880	          0.06921651	          0.06329170	          0.07792316	          0.08236050	          0.06217306	          0.04424672	          0.16687065	          0.06726720	          0.08013831	          0.07256092	          0.07469624	          0.06906911	          0.08277842	          0.04183997	          0.03699463	          0.16002353	          0.04744313	          0.04917658	          0.08133585	          0.06945886	          0.06095810	          0.06773086	          0.06594657	          0.06162205	          0.06277120	          0.08632191	
          1.21000000	        -27.49288470	         -4.07326405	        -20.29731836	         -4.47138718	         14.14481802	          4.85501373	        -34.60886100	         18.98319959	         27.93893571	          0.06278822	          0.10031277	          0.04664476	          0.07287063	          0.10332296	          0.10921795	          0.06186556	          0.06941103	          0.06535045	          0.07787944	          0.08221041	          0.06230181	          0.04451543	          0.16844823	          0.06818369	          0.08139572	          0.07314327	          0.07395091	          0.06793694	          0.08116753	          0.04321116	          0.03541973	          0.15413275	          0.04777317	          0.05028095	          0.07601188	          0.06608669	          0.05751511	          0.06795987	          0.06567062	          0.06201094	          0.06379929	          0.08598108	
          1.22000000	        -27.57524842	         -4.07244770	        -20.41982000	         -4.48361027	         14.17280655	          4.83842946	        -34.38951810	         19.17683378	         27.63913089	          0.06367689	          0.10132438	          0.04634489	          0.07244490	          0.10517393	          0.10711834	          0.06182611	          0.06952496	          0.06729418	          0.07775027	          0.08197052	          0.06232188	          0.04480257	          0.16993318	          0.06909838	          0.08260845	          0.07368554	          0.07316919	          0.06672591	          0.07947831	          0.04474570	          0.03422243	          0.14872030	          0.04784179	          0.05171339	          0.07219309	          0.06287277	          0.05430884	          0.06815857	          0.06528250	          0.06222048	          0.06510723	          0.08556799	
          1.23000000	        -27.66632781	         -4.07039331	        -20.55536750	         -4.49631075	         14.20397334	          4.81939971	        -34.15374906	         19.38354417	         27.32446798	          0.06466005	          0.10227021	          0.04607234	          0.07202710	          0.10667368	          0.10514952	          0.06170178	          0.06951848	          0.06891934	          0.07741635	          0.08174592	          0.06226897	          0.04499770	          0.17134804	          0.06996523	          0.08371708	          0.07418971	          0.07236816	          0.06543716	          0.07768199	          0.04629402	          0.03313910	          0.14390712	          0.04751163	          0.05304812	          0.06927742	          0.05980174	          0.05140703	          0.06836815	          0.06492917	          0.06226696	          0.06669765	          0.08520347	
          1.24000000	        -27.76617283	         -4.06668160	        -20.70377957	         -4.50932615	         14.23890737	          4.79755230	        -33.90324810	         19.60355964	         26.99703453	          0.06568573	          0.10314076	          0.04582513	          0.07163494	          0.10779887	          0.10329670	          0.06143390	          0.06935286	          0.07004691	          0.07683865	          0.08153494	          0.06220705	          0.04499439	          0.17270187	          0.07074848	          0.08465280	          0.07464061	          0.07159324	          0.06409036	          0.07581703	          0.04771412	          0.03213823	          0.13969215	          0.04664577	          0.05408236	          0.06693548	          0.05692440	          0.04884094	          0.06860504	          0.06472804	          0.06215403	          0.06846734	          0.08490039	
          1.25000000	        -27.87448871	         -4.06079604	        -20.86414360	         -4.52247194	         14.27849186	          4.77244185	        -33.63999898	         19.83710613	         26.65864010	          0.06670653	          0.10391849	          0.04566031	          0.07129273	          0.10855980	          0.10158832	          0.06097261	          0.06903356	          0.07057595	          0.07605208	          0.08132811	          0.06218121	          0.04474031	          0.17399740	          0.07143063	          0.08537843	          0.07502623	          0.07089971	          0.06265401	          0.07393239	          0.04885437	          0.03124994	          0.13600920	          0.04523664	          0.05483846	          0.06498236	          0.05431143	          0.04660324	          0.06885987	          0.06470701	          0.06190335	          0.07031510	          0.08465933	
          1.26000000	        -27.99058451	         -4.05212029	        -21.03470304	         -4.53554794	         14.32395302	          4.74354910	        -33.36622910	         20.08440025	         26.31074464	          0.06767833	          0.10460712	          0.04561391	          0.07103189	          0.10900514	          0.10003785	          0.06030960	          0.06859595	          0.07044891	          0.07509860	          0.08110305	          0.06222833	          0.04422078	          0.17522291	          0.07200137	          0.08586348	          0.07532943	          0.07029134	          0.06116683	          0.07204412	          0.04956964	          0.03053859	          0.13280965	          0.04328402	          0.05540312	          0.06341311	          0.05201657	          0.04467161	          0.06913056	          0.06485694	          0.06156138	          0.07214600	          0.08446221	
          1.27000000	        -28.11337201	         -4.03994499	        -21.21285238	         -4.54834415	         14.37686576	          4.71029003	        -33.08434258	         20.34565094	         25.95437918	          0.06857395	          0.10517175	          0.04572927	          0.07087991	          0.10917835	          0.09868589	          0.05944199	          0.06807251	          0.06965954	          0.07407420	          0.08083610	          0.06232528	          0.04347634	          0.17628023	          0.07243254	          0.08607644	          0.07553288	          0.06973351	          0.05962531	          0.07010169	          0.04976230	          0.03000840	          0.13006891	          0.04089689	          0.05582901	          0.06221596	          0.05007402	          0.04303240	          0.06942139	          0.06512562	          0.06107026	          0.07385306	          0.08426751	
